<?xml version="1.0" encoding="us-ascii" standalone="no"?><svg xmlns="http://www.w3.org/2000/svg" xmlns:xlink="http://www.w3.org/1999/xlink" contentStyleType="text/css" height="567px" preserveAspectRatio="none" style="width:781px;height:567px;background:#FFFFFF;" version="1.1" viewBox="0 0 781 567" width="781px" zoomAndPan="magnify"><defs/><g><rect fill="#06AED5" height="122.5313" style="stroke:#181818;stroke-width:1.0;" width="10" x="28.5" y="67.4297"/><rect fill="#FFF1D0" height="87.3984" style="stroke:#181818;stroke-width:1.0;" width="10" x="235.5" y="219.0938"/><rect fill="#FFF1D0" height="122.5313" style="stroke:#181818;stroke-width:1.0;" width="10" x="235.5" y="391.5625"/><line style="stroke:#181818;stroke-width:0.5;stroke-dasharray:5.0,5.0;" x1="33" x2="33" y1="36.2969" y2="314.4922"/><line style="stroke:#A80036;stroke-width:1.0;stroke-dasharray:1.0,4.0;" x1="33" x2="33" y1="314.4922" y2="355.2969"/><line style="stroke:#181818;stroke-width:0.5;stroke-dasharray:5.0,5.0;" x1="33" x2="33" y1="355.2969" y2="532.0938"/><line style="stroke:#181818;stroke-width:0.5;stroke-dasharray:5.0,5.0;" x1="117.5" x2="117.5" y1="36.2969" y2="314.4922"/><line style="stroke:#A80036;stroke-width:1.0;stroke-dasharray:1.0,4.0;" x1="117.5" x2="117.5" y1="314.4922" y2="355.2969"/><line style="stroke:#181818;stroke-width:0.5;stroke-dasharray:5.0,5.0;" x1="117.5" x2="117.5" y1="355.2969" y2="532.0938"/><line style="stroke:#181818;stroke-width:0.5;stroke-dasharray:5.0,5.0;" x1="240" x2="240" y1="36.2969" y2="314.4922"/><line style="stroke:#A80036;stroke-width:1.0;stroke-dasharray:1.0,4.0;" x1="240" x2="240" y1="314.4922" y2="355.2969"/><line style="stroke:#181818;stroke-width:0.5;stroke-dasharray:5.0,5.0;" x1="240" x2="240" y1="355.2969" y2="532.0938"/><line style="stroke:#181818;stroke-width:0.5;stroke-dasharray:5.0,5.0;" x1="451.5" x2="451.5" y1="36.2969" y2="314.4922"/><line style="stroke:#A80036;stroke-width:1.0;stroke-dasharray:1.0,4.0;" x1="451.5" x2="451.5" y1="314.4922" y2="355.2969"/><line style="stroke:#181818;stroke-width:0.5;stroke-dasharray:5.0,5.0;" x1="451.5" x2="451.5" y1="355.2969" y2="532.0938"/><line style="stroke:#181818;stroke-width:0.5;stroke-dasharray:5.0,5.0;" x1="560.5" x2="560.5" y1="36.2969" y2="314.4922"/><line style="stroke:#A80036;stroke-width:1.0;stroke-dasharray:1.0,4.0;" x1="560.5" x2="560.5" y1="314.4922" y2="355.2969"/><line style="stroke:#181818;stroke-width:0.5;stroke-dasharray:5.0,5.0;" x1="560.5" x2="560.5" y1="355.2969" y2="532.0938"/><line style="stroke:#181818;stroke-width:0.5;stroke-dasharray:5.0,5.0;" x1="668.5" x2="668.5" y1="36.2969" y2="314.4922"/><line style="stroke:#A80036;stroke-width:1.0;stroke-dasharray:1.0,4.0;" x1="668.5" x2="668.5" y1="314.4922" y2="355.2969"/><line style="stroke:#181818;stroke-width:0.5;stroke-dasharray:5.0,5.0;" x1="668.5" x2="668.5" y1="355.2969" y2="532.0938"/><line style="stroke:#181818;stroke-width:0.5;stroke-dasharray:5.0,5.0;" x1="755.5" x2="755.5" y1="36.2969" y2="314.4922"/><line style="stroke:#A80036;stroke-width:1.0;stroke-dasharray:1.0,4.0;" x1="755.5" x2="755.5" y1="314.4922" y2="355.2969"/><line style="stroke:#181818;stroke-width:0.5;stroke-dasharray:5.0,5.0;" x1="755.5" x2="755.5" y1="355.2969" y2="532.0938"/><rect fill="#E2E2F0" height="30.2969" rx="2.5" ry="2.5" style="stroke:#181818;stroke-width:0.5;" width="57" x="5" y="5"/><text fill="#000000" font-family="sans-serif" font-size="14" lengthAdjust="spacing" textLength="43" x="12" y="24.9951">Drone</text><rect fill="#E2E2F0" height="30.2969" rx="2.5" ry="2.5" style="stroke:#181818;stroke-width:0.5;" width="57" x="5" y="531.0938"/><text fill="#000000" font-family="sans-serif" font-size="14" lengthAdjust="spacing" textLength="43" x="12" y="551.0889">Drone</text><rect fill="#E2E2F0" height="30.2969" rx="2.5" ry="2.5" style="stroke:#181818;stroke-width:0.5;" width="60" x="87.5" y="5"/><text fill="#000000" font-family="sans-serif" font-size="14" lengthAdjust="spacing" textLength="46" x="94.5" y="24.9951">Carpet</text><rect fill="#E2E2F0" height="30.2969" rx="2.5" ry="2.5" style="stroke:#181818;stroke-width:0.5;" width="60" x="87.5" y="531.0938"/><text fill="#000000" font-family="sans-serif" font-size="14" lengthAdjust="spacing" textLength="46" x="94.5" y="551.0889">Carpet</text><rect fill="#E2E2F0" height="30.2969" rx="2.5" ry="2.5" style="stroke:#181818;stroke-width:0.5;" width="105" x="188" y="5"/><text fill="#000000" font-family="sans-serif" font-size="14" lengthAdjust="spacing" textLength="91" x="195" y="24.9951">Airport Plugin</text><rect fill="#E2E2F0" height="30.2969" rx="2.5" ry="2.5" style="stroke:#181818;stroke-width:0.5;" width="105" x="188" y="531.0938"/><text fill="#000000" font-family="sans-serif" font-size="14" lengthAdjust="spacing" textLength="91" x="195" y="551.0889">Airport Plugin</text><rect fill="#E2E2F0" height="30.2969" rx="2.5" ry="2.5" style="stroke:#181818;stroke-width:0.5;" width="114" x="394.5" y="5"/><text fill="#000000" font-family="sans-serif" font-size="14" lengthAdjust="spacing" textLength="100" x="401.5" y="24.9951">Airport Module</text><rect fill="#E2E2F0" height="30.2969" rx="2.5" ry="2.5" style="stroke:#181818;stroke-width:0.5;" width="114" x="394.5" y="531.0938"/><text fill="#000000" font-family="sans-serif" font-size="14" lengthAdjust="spacing" textLength="100" x="401.5" y="551.0889">Airport Module</text><rect fill="#E2E2F0" height="30.2969" rx="2.5" ry="2.5" style="stroke:#181818;stroke-width:0.5;" width="84" x="518.5" y="5"/><text fill="#000000" font-family="sans-serif" font-size="14" lengthAdjust="spacing" textLength="70" x="525.5" y="24.9951">Airport DB</text><rect fill="#E2E2F0" height="30.2969" rx="2.5" ry="2.5" style="stroke:#181818;stroke-width:0.5;" width="84" x="518.5" y="531.0938"/><text fill="#000000" font-family="sans-serif" font-size="14" lengthAdjust="spacing" textLength="70" x="525.5" y="551.0889">Airport DB</text><rect fill="#E2E2F0" height="30.2969" rx="2.5" ry="2.5" style="stroke:#181818;stroke-width:0.5;" width="113" x="612.5" y="5"/><text fill="#000000" font-family="sans-serif" font-size="14" lengthAdjust="spacing" textLength="99" x="619.5" y="24.9951">Token Module</text><rect fill="#E2E2F0" height="30.2969" rx="2.5" ry="2.5" style="stroke:#181818;stroke-width:0.5;" width="113" x="612.5" y="531.0938"/><text fill="#000000" font-family="sans-serif" font-size="14" lengthAdjust="spacing" textLength="99" x="619.5" y="551.0889">Token Module</text><rect fill="#E2E2F0" height="30.2969" rx="2.5" ry="2.5" style="stroke:#181818;stroke-width:0.5;" width="40" x="735.5" y="5"/><text fill="#000000" font-family="sans-serif" font-size="14" lengthAdjust="spacing" textLength="26" x="742.5" y="24.9951">Lisk</text><rect fill="#E2E2F0" height="30.2969" rx="2.5" ry="2.5" style="stroke:#181818;stroke-width:0.5;" width="40" x="735.5" y="531.0938"/><text fill="#000000" font-family="sans-serif" font-size="14" lengthAdjust="spacing" textLength="26" x="742.5" y="551.0889">Lisk</text><rect fill="#06AED5" height="122.5313" style="stroke:#181818;stroke-width:1.0;" width="10" x="28.5" y="67.4297"/><rect fill="#FFF1D0" height="87.3984" style="stroke:#181818;stroke-width:1.0;" width="10" x="235.5" y="219.0938"/><rect fill="#FFF1D0" height="122.5313" style="stroke:#181818;stroke-width:1.0;" width="10" x="235.5" y="391.5625"/><polygon fill="#181818" points="105.5,63.4297,115.5,67.4297,105.5,71.4297,109.5,67.4297" style="stroke:#181818;stroke-width:1.0;"/><line style="stroke:#181818;stroke-width:1.0;" x1="38.5" x2="111.5" y1="67.4297" y2="67.4297"/><text fill="#000000" font-family="sans-serif" font-size="13" font-weight="bold" lengthAdjust="spacing" textLength="9" x="45.5" y="62.3638">1</text><text fill="#000000" font-family="sans-serif" font-size="13" lengthAdjust="spacing" textLength="47" x="58.5" y="62.3638">Landed</text><polygon fill="#181818" points="743.5,92.5625,753.5,96.5625,743.5,100.5625,747.5,96.5625" style="stroke:#181818;stroke-width:1.0;"/><line style="stroke:#181818;stroke-width:1.0;" x1="38.5" x2="749.5" y1="96.5625" y2="96.5625"/><text fill="#000000" font-family="sans-serif" font-size="13" font-weight="bold" lengthAdjust="spacing" textLength="9" x="45.5" y="91.4966">2</text><text fill="#000000" font-family="sans-serif" font-size="13" lengthAdjust="spacing" textLength="286" x="58.5" y="91.4966">Get contract statement from airport account</text><polygon fill="#181818" points="49.5,121.6953,39.5,125.6953,49.5,129.6953,45.5,125.6953" style="stroke:#181818;stroke-width:1.0;"/><line style="stroke:#181818;stroke-width:1.0;stroke-dasharray:2.0,2.0;" x1="43.5" x2="754.5" y1="125.6953" y2="125.6953"/><text fill="#000000" font-family="sans-serif" font-size="13" font-weight="bold" lengthAdjust="spacing" textLength="9" x="55.5" y="120.6294">3</text><text fill="#000000" font-family="sans-serif" font-size="13" lengthAdjust="spacing" textLength="170" x="68.5" y="120.6294">Return contract statement</text><path d="M118,138.6953 L118,163.6953 L362,163.6953 L362,148.6953 L352,138.6953 L118,138.6953 " fill="#FEFFDD" style="stroke:#181818;stroke-width:0.5;"/><path d="M352,138.6953 L352,148.6953 L362,148.6953 L352,138.6953 " fill="#FEFFDD" style="stroke:#181818;stroke-width:0.5;"/><text fill="#000000" font-family="sans-serif" font-size="13" lengthAdjust="spacing" textLength="223" x="124" y="155.7622">Pay fee to airport for carpet usage.</text><polygon fill="#181818" points="657,185.9609,667,189.9609,657,193.9609,661,189.9609" style="stroke:#181818;stroke-width:1.0;"/><line style="stroke:#181818;stroke-width:1.0;" x1="33.5" x2="663" y1="189.9609" y2="189.9609"/><text fill="#000000" font-family="sans-serif" font-size="13" font-weight="bold" lengthAdjust="spacing" textLength="9" x="40.5" y="184.895">4</text><text fill="#000000" font-family="sans-serif" font-size="13" lengthAdjust="spacing" textLength="180" x="53.5" y="184.895">Create payment transaction</text><polygon fill="#181818" points="223.5,215.0938,233.5,219.0938,223.5,223.0938,227.5,219.0938" style="stroke:#181818;stroke-width:1.0;"/><line style="stroke:#181818;stroke-width:1.0;" x1="117.5" x2="229.5" y1="219.0938" y2="219.0938"/><text fill="#000000" font-family="sans-serif" font-size="13" font-weight="bold" lengthAdjust="spacing" textLength="9" x="124.5" y="214.0278">5</text><text fill="#000000" font-family="sans-serif" font-size="13" lengthAdjust="spacing" textLength="86" x="137.5" y="214.0278">Drone landed</text><polygon fill="#181818" points="548.5,244.2266,558.5,248.2266,548.5,252.2266,552.5,248.2266" style="stroke:#181818;stroke-width:1.0;"/><line style="stroke:#181818;stroke-width:1.0;" x1="245.5" x2="554.5" y1="248.2266" y2="248.2266"/><text fill="#000000" font-family="sans-serif" font-size="13" font-weight="bold" lengthAdjust="spacing" textLength="9" x="252.5" y="243.1606">6</text><text fill="#000000" font-family="sans-serif" font-size="13" lengthAdjust="spacing" textLength="235" x="265.5" y="243.1606">Get private key and landlord account</text><polygon fill="#181818" points="256.5,273.3594,246.5,277.3594,256.5,281.3594,252.5,277.3594" style="stroke:#181818;stroke-width:1.0;"/><line style="stroke:#181818;stroke-width:1.0;stroke-dasharray:2.0,2.0;" x1="250.5" x2="559.5" y1="277.3594" y2="277.3594"/><text fill="#000000" font-family="sans-serif" font-size="13" font-weight="bold" lengthAdjust="spacing" textLength="9" x="262.5" y="272.2935">7</text><text fill="#000000" font-family="sans-serif" font-size="13" lengthAdjust="spacing" textLength="167" x="275.5" y="272.2935">Return private information</text><polygon fill="#181818" points="439.5,302.4922,449.5,306.4922,439.5,310.4922,443.5,306.4922" style="stroke:#181818;stroke-width:1.0;"/><line style="stroke:#181818;stroke-width:1.0;" x1="240.5" x2="445.5" y1="306.4922" y2="306.4922"/><text fill="#000000" font-family="sans-serif" font-size="13" font-weight="bold" lengthAdjust="spacing" textLength="9" x="247.5" y="301.4263">8</text><text fill="#000000" font-family="sans-serif" font-size="13" lengthAdjust="spacing" textLength="169" x="260.5" y="301.4263">Create landing transaction</text><text fill="#000000" font-family="sans-serif" font-size="11" lengthAdjust="spacing" textLength="61" x="364" y="338.7026">some time</text><polygon fill="#181818" points="256.5,387.5625,246.5,391.5625,256.5,395.5625,252.5,391.5625" style="stroke:#181818;stroke-width:1.0;"/><line style="stroke:#181818;stroke-width:1.0;" x1="250.5" x2="450.5" y1="391.5625" y2="391.5625"/><text fill="#000000" font-family="sans-serif" font-size="13" font-weight="bold" lengthAdjust="spacing" textLength="9" x="262.5" y="378.9302">9</text><text fill="#000000" font-family="sans-serif" font-size="13" lengthAdjust="spacing" textLength="85" x="275.5" y="371.3638">Publish event</text><text fill="#000000" font-family="sans-serif" font-size="13" lengthAdjust="spacing" textLength="151" x="279.5" y="386.4966">with landing transaction</text><polygon fill="#181818" points="743.5,416.6953,753.5,420.6953,743.5,424.6953,747.5,420.6953" style="stroke:#181818;stroke-width:1.0;"/><line style="stroke:#181818;stroke-width:1.0;" x1="245.5" x2="749.5" y1="420.6953" y2="420.6953"/><text fill="#000000" font-family="sans-serif" font-size="13" font-weight="bold" lengthAdjust="spacing" textLength="18" x="252.5" y="415.6294">10</text><text fill="#000000" font-family="sans-serif" font-size="13" lengthAdjust="spacing" textLength="295" x="274.5" y="415.6294">Get contract statement from landlord account</text><polygon fill="#181818" points="256.5,445.8281,246.5,449.8281,256.5,453.8281,252.5,449.8281" style="stroke:#181818;stroke-width:1.0;"/><line style="stroke:#181818;stroke-width:1.0;stroke-dasharray:2.0,2.0;" x1="250.5" x2="754.5" y1="449.8281" y2="449.8281"/><text fill="#000000" font-family="sans-serif" font-size="13" font-weight="bold" lengthAdjust="spacing" textLength="18" x="262.5" y="444.7622">11</text><text fill="#000000" font-family="sans-serif" font-size="13" lengthAdjust="spacing" textLength="170" x="284.5" y="444.7622">Return contract statement</text><path d="M127,462.8281 L127,487.8281 L353,487.8281 L353,472.8281 L343,462.8281 L127,462.8281 " fill="#FEFFDD" style="stroke:#181818;stroke-width:0.5;"/><path d="M343,462.8281 L343,472.8281 L353,472.8281 L343,462.8281 " fill="#FEFFDD" style="stroke:#181818;stroke-width:0.5;"/><text fill="#000000" font-family="sans-serif" font-size="13" lengthAdjust="spacing" textLength="205" x="133" y="479.895">Pay fee to landlord for land rent.</text><polygon fill="#181818" points="657,510.0938,667,514.0938,657,518.0938,661,514.0938" style="stroke:#181818;stroke-width:1.0;"/><line style="stroke:#181818;stroke-width:1.0;" x1="240.5" x2="663" y1="514.0938" y2="514.0938"/><text fill="#000000" font-family="sans-serif" font-size="13" font-weight="bold" lengthAdjust="spacing" textLength="18" x="247.5" y="509.0278">12</text><text fill="#000000" font-family="sans-serif" font-size="13" lengthAdjust="spacing" textLength="180" x="269.5" y="509.0278">Create payment transaction</text><!--SRC=[bL8zRy903DtlLrXb9g93EsIeH4dfGYLKTUpY90PEv3vqkL3nx-kxX41eKDibyidlFRzd1njlTADoSa9OT5uMqgBsa3cZ2R26CXI3rWAT9HzwHQm6pRkvTDOu3-kgsKfz5s1eno5lfcmgQY5g798zntQP3ziVPa_wak-l-2jPxsEZuaA860AcJvtZ55QeIoe55buUq5ER4YQpn_bBzd213_GKNZbkORHtZ8VQCq4HJzauem0xfrWKfj5U10PCcHerKdWdtpWzGXVQy61p8CSBIc6DHzWGWJUzvCQupZ0qDMufEVloAeM5es3TuZ6wONbTXq16YvA6oOJeT9WQXhNNhQwMW1Oco-NoFfi9BaE4lCrkNGlOqn6O4ucLSMKVkinZv23TvJrHfEOK2gEhLXJFreEErDjRrlc_4KcIG6qKxqNoXrz2e3h5M3Svhti7TE05V6huadutAdexuky7_X6sl_15tF-SjnSCzmqFS8nFEaD_loolvni0]--></g></svg>